<svg xmlns="http://www.w3.org/2000/svg" width="1024" height="1024" viewBox="0 0 1024 1024">
<defs>
  <filter id="ds0"><feDropShadow dx="0" dy="5" stdDeviation="8"
    flood-color="#3E2000" flood-opacity="0.22"/></filter>
  <filter id="ds1"><feDropShadow dx="0" dy="5" stdDeviation="8"
    flood-color="#5A4000" flood-opacity="0.22"/></filter>
  <filter id="ds2"><feDropShadow dx="0" dy="5" stdDeviation="8"
    flood-color="#1A4020" flood-opacity="0.22"/></filter>
  <filter id="ds3"><feDropShadow dx="0" dy="5" stdDeviation="8"
    flood-color="#102840" flood-opacity="0.22"/></filter>
  <linearGradient id="vTop" x1="0" y1="0" x2="0" y2="1">
    <stop offset="0" stop-color="#4A2E0A" stop-opacity="0.22"/>
    <stop offset="1" stop-color="#4A2E0A" stop-opacity="0"/>
  </linearGradient>
  <linearGradient id="vBot" x1="0" y1="0" x2="0" y2="1">
    <stop offset="0" stop-color="#4A2E0A" stop-opacity="0"/>
    <stop offset="1" stop-color="#4A2E0A" stop-opacity="0.26"/>
  </linearGradient>
  <linearGradient id="vLeft" x1="0" y1="0" x2="1" y2="0">
    <stop offset="0" stop-color="#4A2E0A" stop-opacity="0.14"/>
    <stop offset="1" stop-color="#4A2E0A" stop-opacity="0"/>
  </linearGradient>
  <linearGradient id="vRight" x1="0" y1="0" x2="1" y2="0">
    <stop offset="0" stop-color="#4A2E0A" stop-opacity="0"/>
    <stop offset="1" stop-color="#4A2E0A" stop-opacity="0.14"/>
  </linearGradient>
</defs>
<rect width="1024" height="1024" fill="#EEE3BE"/>
<rect x="426.7" y="983.6" width="7.4" height="1.8" rx="0.9" fill="#5A3D18" opacity="0.116" transform="rotate(-45.0 430.4 984.5)"/>
<rect x="1008.6" y="850.3" width="17.6" height="2.4" rx="1.2" fill="#8A6238" opacity="0.042" transform="rotate(-36.9 1017.4 851.5)"/>
<rect x="521.3" y="25.7" width="17.7" height="2.2" rx="1.1" fill="#7A5530" opacity="0.088" transform="rotate(10.9 530.1 26.8)"/>
<rect x="254.8" y="767.0" width="17.9" height="1.9" rx="0.9" fill="#8A6238" opacity="0.077" transform="rotate(-49.6 263.7 767.9)"/>
<rect x="562.5" y="221.8" width="17.8" height="3.4" rx="1.7" fill="#9B7045" opacity="0.083" transform="rotate(5.7 571.4 223.5)"/>
<rect x="122.1" y="673.2" width="29.6" height="1.3" rx="0.7" fill="#8A6238" opacity="0.112" transform="rotate(-30.3 136.9 673.9)"/>
<rect x="493.1" y="992.4" width="21.7" height="2.3" rx="1.2" fill="#5A3D18" opacity="0.083" transform="rotate(24.0 503.9 993.6)"/>
<rect x="718.4" y="946.9" width="20.0" height="3.2" rx="1.6" fill="#3E2808" opacity="0.074" transform="rotate(75.6 728.4 948.5)"/>
<rect x="920.1" y="156.7" width="42.1" height="1.6" rx="0.8" fill="#4E3210" opacity="0.098" transform="rotate(-58.2 941.2 157.5)"/>
<rect x="626.3" y="682.0" width="19.7" height="4.5" rx="2.2" fill="#B08050" opacity="0.093" transform="rotate(-31.3 636.2 684.3)"/>
<rect x="10.0" y="645.4" width="32.8" height="2.3" rx="1.2" fill="#6B4820" opacity="0.087" transform="rotate(71.3 26.4 646.5)"/>
<rect x="481.0" y="548.8" width="35.1" height="2.6" rx="1.3" fill="#5A3D18" opacity="0.087" transform="rotate(-70.2 498.5 550.1)"/>
<rect x="612.2" y="941.5" width="42.5" height="2.7" rx="1.3" fill="#3E2808" opacity="0.125" transform="rotate(6.2 633.5 942.9)"/>
<rect x="970.7" y="190.3" width="22.9" height="1.1" rx="0.6" fill="#8A6238" opacity="0.062" transform="rotate(61.5 982.1 190.9)"/>
<rect x="741.5" y="150.1" width="24.2" height="1.8" rx="0.9" fill="#6B4820" opacity="0.123" transform="rotate(-6.3 753.6 151.0)"/>
<rect x="733.6" y="431.8" width="31.7" height="2.9" rx="1.4" fill="#B08050" opacity="0.092" transform="rotate(-67.2 749.5 433.2)"/>
<rect x="545.0" y="650.8" width="27.7" height="2.0" rx="1.0" fill="#4E3210" opacity="0.105" transform="rotate(7.5 558.9 651.9)"/>
<rect x="567.7" y="608.8" width="8.1" height="4.0" rx="2.0" fill="#8A6238" opacity="0.048" transform="rotate(-40.5 571.8 610.8)"/>
<rect x="980.4" y="973.5" width="39.2" height="3.5" rx="1.8" fill="#6B4820" opacity="0.054" transform="rotate(54.0 1000.0 975.3)"/>
<rect x="412.0" y="893.4" width="14.9" height="2.5" rx="1.2" fill="#5A3D18" opacity="0.052" transform="rotate(32.4 419.5 894.6)"/>
<rect x="804.6" y="1012.9" width="12.5" height="2.4" rx="1.2" fill="#4E3210" opacity="0.044" transform="rotate(39.7 810.9 1014.1)"/>
<rect x="806.6" y="85.4" width="20.3" height="2.8" rx="1.4" fill="#7A5530" opacity="0.117" transform="rotate(39.3 816.7 86.8)"/>
<rect x="142.8" y="423.0" width="10.6" height="3.9" rx="2.0" fill="#4E3210" opacity="0.111" transform="rotate(-68.6 148.1 425.0)"/>
<rect x="948.1" y="622.5" width="35.3" height="2.3" rx="1.1" fill="#5A3D18" opacity="0.048" transform="rotate(65.9 965.8 623.6)"/>
<rect x="407.6" y="367.3" width="27.0" height="2.3" rx="1.2" fill="#6B4820" opacity="0.082" transform="rotate(44.9 421.1 368.5)"/>
<rect x="450.3" y="654.5" width="29.9" height="3.8" rx="1.9" fill="#7A5530" opacity="0.086" transform="rotate(9.2 465.2 656.4)"/>
<rect x="630.6" y="546.1" width="42.3" height="1.7" rx="0.8" fill="#7A5530" opacity="0.055" transform="rotate(29.4 651.7 547.0)"/>
<rect x="118.3" y="856.9" width="30.2" height="2.0" rx="1.0" fill="#3E2808" opacity="0.109" transform="rotate(76.3 133.4 858.0)"/>
<rect x="1002.0" y="583.3" width="40.4" height="3.0" rx="1.5" fill="#4E3210" opacity="0.085" transform="rotate(6.7 1022.2 584.8)"/>
<rect x="1019.1" y="295.4" width="7.5" height="3.4" rx="1.7" fill="#4E3210" opacity="0.048" transform="rotate(44.9 1022.8 297.1)"/>
<rect x="581.0" y="423.8" width="31.8" height="3.1" rx="1.6" fill="#B08050" opacity="0.057" transform="rotate(21.9 596.9 425.4)"/>
<rect x="444.9" y="586.2" width="37.2" height="4.2" rx="2.1" fill="#7A5530" opacity="0.116" transform="rotate(-58.6 463.5 588.3)"/>
<rect x="995.9" y="659.0" width="13.9" height="3.7" rx="1.8" fill="#B08050" opacity="0.107" transform="rotate(42.3 1002.8 660.9)"/>
<rect x="126.4" y="922.9" width="27.2" height="2.9" rx="1.5" fill="#8A6238" opacity="0.066" transform="rotate(11.3 140.0 924.4)"/>
<rect x="971.8" y="512.1" width="31.5" height="2.0" rx="1.0" fill="#3E2808" opacity="0.044" transform="rotate(7.5 987.6 513.1)"/>
<rect x="518.8" y="639.1" width="39.4" height="1.3" rx="0.7" fill="#5A3D18" opacity="0.051" transform="rotate(-46.7 538.5 639.7)"/>
<rect x="643.7" y="154.5" width="42.7" height="3.4" rx="1.7" fill="#5A3D18" opacity="0.060" transform="rotate(19.8 665.0 156.2)"/>
<rect x="143.5" y="104.1" width="24.5" height="2.6" rx="1.3" fill="#4E3210" opacity="0.068" transform="rotate(-51.6 155.7 105.4)"/>
<rect x="636.3" y="841.2" width="23.1" height="1.3" rx="0.6" fill="#9B7045" opacity="0.113" transform="rotate(77.6 647.9 841.9)"/>
<rect x="330.5" y="960.4" width="40.0" height="2.0" rx="1.0" fill="#B08050" opacity="0.095" transform="rotate(24.7 350.5 961.4)"/>
<rect x="985.6" y="24.4" width="23.2" height="3.3" rx="1.7" fill="#8A6238" opacity="0.080" transform="rotate(-30.6 997.2 26.1)"/>
<rect x="433.7" y="83.3" width="18.4" height="3.8" rx="1.9" fill="#7A5530" opacity="0.080" transform="rotate(78.7 442.9 85.2)"/>
<rect x="98.8" y="735.4" width="25.5" height="4.1" rx="2.1" fill="#8A6238" opacity="0.058" transform="rotate(66.7 111.6 737.5)"/>
<rect x="755.0" y="212.6" width="23.1" height="3.0" rx="1.5" fill="#5A3D18" opacity="0.094" transform="rotate(41.3 766.6 214.1)"/>
<rect x="271.5" y="965.1" width="38.6" height="3.8" rx="1.9" fill="#8A6238" opacity="0.124" transform="rotate(34.9 290.8 967.0)"/>
<rect x="19.2" y="372.3" width="25.1" height="3.8" rx="1.9" fill="#8A6238" opacity="0.050" transform="rotate(73.0 31.7 374.2)"/>
<rect x="583.4" y="806.0" width="26.8" height="1.3" rx="0.6" fill="#7A5530" opacity="0.118" transform="rotate(12.3 596.9 806.7)"/>
<rect x="117.0" y="950.8" width="38.5" height="2.8" rx="1.4" fill="#B08050" opacity="0.088" transform="rotate(76.6 136.2 952.2)"/>
<rect x="974.3" y="665.5" width="8.6" height="2.5" rx="1.3" fill="#6B4820" opacity="0.097" transform="rotate(33.5 978.6 666.8)"/>
<rect x="936.8" y="833.2" width="35.4" height="3.2" rx="1.6" fill="#4E3210" opacity="0.090" transform="rotate(73.4 954.5 834.8)"/>
<rect x="163.7" y="33.2" width="35.9" height="2.8" rx="1.4" fill="#3E2808" opacity="0.054" transform="rotate(-28.1 181.6 34.7)"/>
<rect x="237.1" y="321.8" width="9.9" height="1.1" rx="0.6" fill="#7A5530" opacity="0.051" transform="rotate(26.2 242.1 322.3)"/>
<rect x="816.2" y="828.0" width="41.6" height="3.5" rx="1.8" fill="#9B7045" opacity="0.062" transform="rotate(11.9 837.0 829.8)"/>
<rect x="747.5" y="455.3" width="24.4" height="4.0" rx="2.0" fill="#B08050" opacity="0.072" transform="rotate(-70.6 759.7 457.3)"/>
<rect x="541.2" y="465.1" width="27.8" height="3.0" rx="1.5" fill="#3E2808" opacity="0.044" transform="rotate(-35.6 555.1 466.6)"/>
<rect x="823.9" y="769.5" width="17.8" height="4.2" rx="2.1" fill="#9B7045" opacity="0.108" transform="rotate(21.0 832.7 771.6)"/>
<rect x="879.6" y="261.8" width="16.1" height="1.1" rx="0.5" fill="#3E2808" opacity="0.062" transform="rotate(25.0 887.6 262.3)"/>
<rect x="805.5" y="831.6" width="43.6" height="2.5" rx="1.2" fill="#5A3D18" opacity="0.076" transform="rotate(26.2 827.3 832.8)"/>
<rect x="309.7" y="573.7" width="22.0" height="1.7" rx="0.8" fill="#8A6238" opacity="0.113" transform="rotate(43.4 320.7 574.5)"/>
<rect x="241.7" y="728.1" width="28.3" height="3.5" rx="1.8" fill="#6B4820" opacity="0.063" transform="rotate(-25.7 255.8 729.9)"/>
<rect x="643.5" y="785.0" width="39.9" height="4.3" rx="2.1" fill="#5A3D18" opacity="0.082" transform="rotate(-34.2 663.4 787.1)"/>
<rect x="834.0" y="49.5" width="39.1" height="3.7" rx="1.8" fill="#6B4820" opacity="0.046" transform="rotate(-78.9 853.6 51.3)"/>
<rect x="990.9" y="547.4" width="10.3" height="4.5" rx="2.2" fill="#5A3D18" opacity="0.091" transform="rotate(70.4 996.1 549.7)"/>
<rect x="464.4" y="297.0" width="29.8" height="1.7" rx="0.8" fill="#6B4820" opacity="0.088" transform="rotate(22.2 479.3 297.8)"/>
<rect x="216.6" y="704.4" width="27.4" height="2.2" rx="1.1" fill="#6B4820" opacity="0.066" transform="rotate(-6.4 230.4 705.5)"/>
<rect x="780.5" y="849.5" width="36.3" height="3.4" rx="1.7" fill="#5A3D18" opacity="0.095" transform="rotate(6.8 798.7 851.2)"/>
<rect x="165.4" y="49.9" width="30.4" height="3.9" rx="1.9" fill="#4E3210" opacity="0.107" transform="rotate(74.7 180.6 51.8)"/>
<rect x="965.9" y="824.4" width="22.5" height="1.9" rx="1.0" fill="#6B4820" opacity="0.100" transform="rotate(-25.7 977.2 825.3)"/>
<rect x="599.7" y="48.0" width="26.1" height="4.4" rx="2.2" fill="#B08050" opacity="0.114" transform="rotate(67.7 612.7 50.2)"/>
<rect x="466.2" y="845.8" width="11.8" height="2.9" rx="1.5" fill="#6B4820" opacity="0.058" transform="rotate(-61.5 472.1 847.3)"/>
<rect x="542.1" y="969.9" width="7.6" height="1.9" rx="1.0" fill="#9B7045" opacity="0.064" transform="rotate(48.2 545.9 970.9)"/>
<rect x="347.3" y="112.0" width="6.0" height="2.9" rx="1.5" fill="#9B7045" opacity="0.087" transform="rotate(-68.5 350.4 113.4)"/>
<rect x="232.4" y="1022.1" width="43.7" height="4.1" rx="2.1" fill="#5A3D18" opacity="0.103" transform="rotate(14.4 254.3 1024.2)"/>
<rect x="83.6" y="439.5" width="35.3" height="3.3" rx="1.6" fill="#B08050" opacity="0.128" transform="rotate(-77.5 101.3 441.1)"/>
<rect x="586.8" y="302.1" width="21.5" height="1.7" rx="0.8" fill="#5A3D18" opacity="0.100" transform="rotate(-18.3 597.5 302.9)"/>
<rect x="181.6" y="568.7" width="37.5" height="3.7" rx="1.8" fill="#B08050" opacity="0.116" transform="rotate(-50.4 200.4 570.6)"/>
<rect x="674.0" y="733.9" width="39.4" height="3.2" rx="1.6" fill="#6B4820" opacity="0.068" transform="rotate(-4.6 693.7 735.5)"/>
<rect x="759.7" y="824.3" width="21.8" height="2.5" rx="1.3" fill="#8A6238" opacity="0.049" transform="rotate(-36.3 770.6 825.6)"/>
<rect x="162.5" y="531.6" width="30.1" height="1.7" rx="0.8" fill="#8A6238" opacity="0.114" transform="rotate(31.0 177.5 532.4)"/>
<rect x="691.0" y="793.5" width="29.2" height="2.4" rx="1.2" fill="#9B7045" opacity="0.084" transform="rotate(25.0 705.6 794.7)"/>
<rect x="727.9" y="99.1" width="28.1" height="1.7" rx="0.9" fill="#8A6238" opacity="0.100" transform="rotate(3.4 742.0 99.9)"/>
<rect x="559.7" y="582.3" width="37.4" height="4.1" rx="2.0" fill="#B08050" opacity="0.098" transform="rotate(49.1 578.4 584.3)"/>
<rect x="623.2" y="643.8" width="32.3" height="2.6" rx="1.3" fill="#3E2808" opacity="0.111" transform="rotate(-59.6 639.3 645.1)"/>
<rect x="657.2" y="714.6" width="25.5" height="3.7" rx="1.8" fill="#6B4820" opacity="0.060" transform="rotate(-39.3 669.9 716.4)"/>
<rect x="564.4" y="885.9" width="28.5" height="2.5" rx="1.3" fill="#B08050" opacity="0.050" transform="rotate(-65.3 578.7 887.2)"/>
<rect x="1020.2" y="643.7" width="24.1" height="2.5" rx="1.3" fill="#9B7045" opacity="0.117" transform="rotate(-34.3 1032.3 644.9)"/>
<rect x="560.4" y="767.6" width="24.6" height="3.2" rx="1.6" fill="#5A3D18" opacity="0.124" transform="rotate(-69.9 572.7 769.2)"/>
<rect x="909.2" y="494.8" width="36.3" height="1.1" rx="0.5" fill="#3E2808" opacity="0.064" transform="rotate(-9.6 927.3 495.3)"/>
<rect x="783.7" y="993.1" width="13.6" height="3.1" rx="1.6" fill="#3E2808" opacity="0.097" transform="rotate(63.8 790.5 994.7)"/>
<rect x="642.8" y="1020.2" width="20.5" height="1.8" rx="0.9" fill="#5A3D18" opacity="0.048" transform="rotate(49.6 653.1 1021.1)"/>
<rect x="947.1" y="467.2" width="27.7" height="2.1" rx="1.1" fill="#5A3D18" opacity="0.076" transform="rotate(15.9 960.9 468.3)"/>
<rect x="747.5" y="288.8" width="35.7" height="1.1" rx="0.5" fill="#5A3D18" opacity="0.085" transform="rotate(37.0 765.3 289.3)"/>
<rect x="51.9" y="359.9" width="32.0" height="4.3" rx="2.2" fill="#8A6238" opacity="0.089" transform="rotate(30.2 67.9 362.1)"/>
<rect x="165.4" y="623.3" width="27.6" height="2.0" rx="1.0" fill="#5A3D18" opacity="0.081" transform="rotate(44.2 179.2 624.3)"/>
<rect x="910.2" y="651.1" width="16.7" height="4.4" rx="2.2" fill="#4E3210" opacity="0.097" transform="rotate(48.8 918.5 653.3)"/>
<rect x="473.4" y="5.7" width="19.2" height="4.3" rx="2.2" fill="#7A5530" opacity="0.041" transform="rotate(4.4 483.0 7.9)"/>
<rect x="318.3" y="469.7" width="31.3" height="3.8" rx="1.9" fill="#7A5530" opacity="0.105" transform="rotate(-78.1 334.0 471.6)"/>
<rect x="649.9" y="471.4" width="8.7" height="1.8" rx="0.9" fill="#3E2808" opacity="0.126" transform="rotate(4.4 654.2 472.3)"/>
<rect x="436.4" y="889.9" width="10.1" height="2.9" rx="1.5" fill="#6B4820" opacity="0.077" transform="rotate(-79.4 441.4 891.3)"/>
<rect x="919.9" y="533.3" width="25.8" height="1.3" rx="0.7" fill="#6B4820" opacity="0.074" transform="rotate(19.1 932.8 533.9)"/>
<rect x="205.9" y="118.3" width="27.0" height="2.0" rx="1.0" fill="#4E3210" opacity="0.096" transform="rotate(46.2 219.4 119.3)"/>
<rect x="259.1" y="605.7" width="27.9" height="3.2" rx="1.6" fill="#5A3D18" opacity="0.105" transform="rotate(25.1 273.0 607.3)"/>
<rect x="970.7" y="575.3" width="17.6" height="2.7" rx="1.4" fill="#B08050" opacity="0.099" transform="rotate(65.5 979.5 576.7)"/>
<rect x="350.7" y="966.1" width="36.7" height="1.9" rx="1.0" fill="#7A5530" opacity="0.120" transform="rotate(59.7 369.0 967.1)"/>
<rect x="430.1" y="615.6" width="14.0" height="3.7" rx="1.8" fill="#4E3210" opacity="0.118" transform="rotate(12.7 437.1 617.4)"/>
<rect x="971.0" y="747.9" width="7.0" height="3.6" rx="1.8" fill="#8A6238" opacity="0.096" transform="rotate(-69.1 974.5 749.6)"/>
<rect x="244.3" y="320.3" width="8.8" height="2.1" rx="1.0" fill="#9B7045" opacity="0.041" transform="rotate(22.4 248.7 321.3)"/>
<rect x="616.6" y="975.5" width="18.1" height="3.6" rx="1.8" fill="#7A5530" opacity="0.091" transform="rotate(51.1 625.7 977.3)"/>
<rect x="303.1" y="51.9" width="19.1" height="3.5" rx="1.7" fill="#7A5530" opacity="0.049" transform="rotate(37.7 312.6 53.7)"/>
<rect x="893.2" y="649.9" width="38.8" height="3.1" rx="1.6" fill="#7A5530" opacity="0.053" transform="rotate(-55.3 912.6 651.5)"/>
<rect x="451.0" y="255.6" width="38.0" height="4.5" rx="2.2" fill="#3E2808" opacity="0.116" transform="rotate(67.6 470.0 257.8)"/>
<rect x="921.5" y="304.3" width="39.4" height="3.2" rx="1.6" fill="#6B4820" opacity="0.118" transform="rotate(-57.7 941.2 305.9)"/>
<rect x="475.1" y="549.4" width="14.1" height="2.6" rx="1.3" fill="#5A3D18" opacity="0.073" transform="rotate(56.4 482.2 550.7)"/>
<rect x="323.3" y="441.4" width="33.0" height="3.7" rx="1.9" fill="#9B7045" opacity="0.101" transform="rotate(33.0 339.8 443.3)"/>
<rect x="1021.3" y="328.0" width="23.5" height="4.1" rx="2.0" fill="#3E2808" opacity="0.070" transform="rotate(-76.2 1033.0 330.0)"/>
<rect x="812.1" y="938.2" width="30.0" height="1.5" rx="0.8" fill="#7A5530" opacity="0.046" transform="rotate(-37.1 827.1 938.9)"/>
<rect x="696.6" y="450.5" width="29.1" height="1.6" rx="0.8" fill="#B08050" opacity="0.056" transform="rotate(-48.7 711.1 451.3)"/>
<rect x="801.5" y="509.9" width="30.1" height="3.4" rx="1.7" fill="#7A5530" opacity="0.072" transform="rotate(-15.4 816.6 511.6)"/>
<rect x="744.6" y="791.2" width="18.7" height="1.4" rx="0.7" fill="#3E2808" opacity="0.096" transform="rotate(-45.6 754.0 791.9)"/>
<rect x="474.0" y="354.8" width="38.8" height="1.5" rx="0.7" fill="#9B7045" opacity="0.044" transform="rotate(18.8 493.4 355.6)"/>
<rect x="73.3" y="995.2" width="16.9" height="3.7" rx="1.9" fill="#B08050" opacity="0.052" transform="rotate(-76.3 81.8 997.1)"/>
<rect x="213.0" y="705.7" width="18.8" height="4.2" rx="2.1" fill="#B08050" opacity="0.051" transform="rotate(-78.8 222.3 707.8)"/>
<rect x="457.2" y="313.7" width="37.1" height="1.2" rx="0.6" fill="#9B7045" opacity="0.066" transform="rotate(49.5 475.8 314.2)"/>
<rect x="1003.6" y="345.3" width="6.7" height="4.1" rx="2.0" fill="#9B7045" opacity="0.115" transform="rotate(-58.0 1007.0 347.3)"/>
<rect x="374.5" y="976.0" width="16.2" height="4.5" rx="2.2" fill="#5A3D18" opacity="0.101" transform="rotate(76.1 382.6 978.2)"/>
<rect x="562.1" y="968.4" width="39.4" height="3.7" rx="1.9" fill="#B08050" opacity="0.099" transform="rotate(16.4 581.8 970.3)"/>
<rect x="839.1" y="647.6" width="20.7" height="1.9" rx="1.0" fill="#6B4820" opacity="0.093" transform="rotate(-69.0 849.5 648.6)"/>
<rect x="417.9" y="864.7" width="12.9" height="4.5" rx="2.2" fill="#8A6238" opacity="0.051" transform="rotate(-46.6 424.3 866.9)"/>
<rect x="922.4" y="216.6" width="30.8" height="2.7" rx="1.3" fill="#6B4820" opacity="0.075" transform="rotate(72.4 937.8 218.0)"/>
<rect x="245.3" y="606.0" width="37.1" height="3.5" rx="1.8" fill="#7A5530" opacity="0.080" transform="rotate(1.7 263.9 607.8)"/>
<rect x="359.2" y="435.0" width="21.6" height="4.4" rx="2.2" fill="#5A3D18" opacity="0.068" transform="rotate(5.6 370.0 437.2)"/>
<rect x="872.8" y="848.1" width="22.7" height="3.9" rx="1.9" fill="#7A5530" opacity="0.103" transform="rotate(-64.0 884.1 850.1)"/>
<rect x="469.8" y="213.1" width="40.8" height="3.4" rx="1.7" fill="#4E3210" opacity="0.117" transform="rotate(-55.2 490.2 214.8)"/>
<rect x="243.1" y="883.1" width="38.4" height="3.7" rx="1.8" fill="#6B4820" opacity="0.049" transform="rotate(36.1 262.3 884.9)"/>
<rect x="714.6" y="918.3" width="27.2" height="1.0" rx="0.5" fill="#6B4820" opacity="0.045" transform="rotate(11.5 728.2 918.8)"/>
<rect x="834.4" y="535.1" width="42.0" height="4.5" rx="2.2" fill="#B08050" opacity="0.067" transform="rotate(-4.8 855.4 537.4)"/>
<rect x="227.9" y="766.8" width="37.4" height="1.7" rx="0.9" fill="#9B7045" opacity="0.042" transform="rotate(-47.1 246.6 767.6)"/>
<rect x="666.6" y="469.8" width="18.0" height="3.6" rx="1.8" fill="#B08050" opacity="0.085" transform="rotate(76.8 675.6 471.6)"/>
<rect x="737.7" y="500.7" width="11.8" height="3.2" rx="1.6" fill="#4E3210" opacity="0.067" transform="rotate(-52.4 743.6 502.4)"/>
<rect x="475.9" y="103.4" width="28.9" height="3.5" rx="1.7" fill="#3E2808" opacity="0.098" transform="rotate(24.7 490.3 105.1)"/>
<rect x="410.1" y="915.0" width="21.5" height="3.0" rx="1.5" fill="#3E2808" opacity="0.103" transform="rotate(4.4 420.9 916.5)"/>
<rect x="184.4" y="184.3" width="12.3" height="2.1" rx="1.0" fill="#7A5530" opacity="0.097" transform="rotate(49.3 190.6 185.3)"/>
<rect x="965.4" y="410.9" width="43.2" height="1.2" rx="0.6" fill="#7A5530" opacity="0.108" transform="rotate(-27.8 987.0 411.5)"/>
<rect x="698.4" y="931.6" width="29.2" height="4.1" rx="2.1" fill="#7A5530" opacity="0.076" transform="rotate(35.1 713.0 933.6)"/>
<rect x="325.3" y="430.5" width="30.2" height="3.0" rx="1.5" fill="#9B7045" opacity="0.077" transform="rotate(-16.0 340.4 431.9)"/>
<rect x="874.3" y="948.0" width="17.8" height="3.3" rx="1.7" fill="#7A5530" opacity="0.052" transform="rotate(-46.2 883.2 949.6)"/>
<rect x="356.4" y="976.8" width="21.3" height="4.3" rx="2.1" fill="#8A6238" opacity="0.091" transform="rotate(-1.3 367.1 978.9)"/>
<rect x="1009.8" y="706.9" width="21.1" height="3.3" rx="1.7" fill="#B08050" opacity="0.074" transform="rotate(2.3 1020.4 708.6)"/>
<rect x="20.0" y="465.6" width="35.6" height="3.8" rx="1.9" fill="#3E2808" opacity="0.120" transform="rotate(-22.6 37.8 467.5)"/>
<rect x="820.4" y="633.3" width="20.2" height="4.0" rx="2.0" fill="#B08050" opacity="0.113" transform="rotate(45.3 830.5 635.3)"/>
<rect x="694.2" y="12.8" width="35.7" height="4.1" rx="2.0" fill="#8A6238" opacity="0.093" transform="rotate(75.7 712.1 14.9)"/>
<rect x="724.2" y="474.0" width="30.5" height="2.5" rx="1.3" fill="#8A6238" opacity="0.072" transform="rotate(-46.4 739.4 475.2)"/>
<rect x="701.7" y="126.0" width="26.5" height="1.8" rx="0.9" fill="#9B7045" opacity="0.122" transform="rotate(59.4 714.9 126.9)"/>
<rect x="38.9" y="861.4" width="16.3" height="3.6" rx="1.8" fill="#9B7045" opacity="0.105" transform="rotate(-14.7 47.0 863.2)"/>
<rect x="674.5" y="983.9" width="26.3" height="1.8" rx="0.9" fill="#9B7045" opacity="0.113" transform="rotate(-41.0 687.6 984.8)"/>
<rect x="9.9" y="1016.1" width="20.0" height="2.7" rx="1.4" fill="#5A3D18" opacity="0.056" transform="rotate(-70.5 19.9 1017.4)"/>
<rect x="406.8" y="349.0" width="23.5" height="1.9" rx="0.9" fill="#8A6238" opacity="0.060" transform="rotate(-7.6 418.6 350.0)"/>
<rect x="517.1" y="244.0" width="13.3" height="1.5" rx="0.7" fill="#8A6238" opacity="0.089" transform="rotate(62.3 523.8 244.8)"/>
<rect x="846.0" y="977.9" width="19.0" height="3.8" rx="1.9" fill="#6B4820" opacity="0.075" transform="rotate(3.7 855.5 979.8)"/>
<rect x="643.7" y="10.4" width="18.6" height="2.1" rx="1.1" fill="#9B7045" opacity="0.041" transform="rotate(-22.6 653.0 11.5)"/>
<rect x="66.1" y="95.2" width="15.0" height="1.8" rx="0.9" fill="#7A5530" opacity="0.112" transform="rotate(23.2 73.6 96.1)"/>
<rect x="861.7" y="998.8" width="39.1" height="3.7" rx="1.8" fill="#9B7045" opacity="0.081" transform="rotate(-61.3 881.2 1000.6)"/>
<rect x="892.2" y="456.1" width="19.0" height="2.6" rx="1.3" fill="#4E3210" opacity="0.061" transform="rotate(-57.2 901.7 457.4)"/>
<rect x="436.3" y="627.4" width="15.9" height="3.3" rx="1.6" fill="#3E2808" opacity="0.050" transform="rotate(55.8 444.2 629.0)"/>
<rect x="558.7" y="836.4" width="37.6" height="2.4" rx="1.2" fill="#4E3210" opacity="0.099" transform="rotate(5.4 577.5 837.6)"/>
<rect x="643.0" y="825.4" width="14.5" height="4.1" rx="2.0" fill="#9B7045" opacity="0.086" transform="rotate(21.8 650.3 827.4)"/>
<rect x="694.1" y="203.8" width="18.4" height="3.2" rx="1.6" fill="#7A5530" opacity="0.111" transform="rotate(0.7 703.2 205.5)"/>
<rect x="132.5" y="519.4" width="27.7" height="4.4" rx="2.2" fill="#3E2808" opacity="0.058" transform="rotate(-73.3 146.3 521.6)"/>
<rect x="275.3" y="765.5" width="30.3" height="1.4" rx="0.7" fill="#6B4820" opacity="0.121" transform="rotate(35.9 290.4 766.3)"/>
<rect x="85.5" y="554.7" width="34.7" height="1.1" rx="0.6" fill="#4E3210" opacity="0.081" transform="rotate(35.9 102.8 555.2)"/>
<rect x="485.4" y="314.5" width="15.1" height="4.5" rx="2.2" fill="#6B4820" opacity="0.100" transform="rotate(28.2 493.0 316.7)"/>
<rect x="879.3" y="30.7" width="30.0" height="1.9" rx="1.0" fill="#8A6238" opacity="0.088" transform="rotate(-48.2 894.3 31.7)"/>
<rect x="918.5" y="343.0" width="7.8" height="2.7" rx="1.3" fill="#7A5530" opacity="0.121" transform="rotate(70.6 922.5 344.3)"/>
<rect x="462.4" y="995.0" width="16.7" height="3.8" rx="1.9" fill="#B08050" opacity="0.078" transform="rotate(-26.6 470.7 996.9)"/>
<rect x="790.0" y="934.4" width="27.2" height="1.2" rx="0.6" fill="#6B4820" opacity="0.054" transform="rotate(67.6 803.6 935.0)"/>
<rect x="311.5" y="107.8" width="35.2" height="1.1" rx="0.5" fill="#6B4820" opacity="0.056" transform="rotate(72.7 329.1 108.3)"/>
<rect x="851.9" y="92.0" width="10.2" height="2.2" rx="1.1" fill="#7A5530" opacity="0.097" transform="rotate(30.4 857.0 93.1)"/>
<rect x="571.8" y="543.3" width="40.2" height="4.2" rx="2.1" fill="#4E3210" opacity="0.105" transform="rotate(2.6 591.9 545.4)"/>
<rect x="10.9" y="657.0" width="17.1" height="3.6" rx="1.8" fill="#B08050" opacity="0.110" transform="rotate(34.6 19.5 658.8)"/>
<rect x="678.1" y="583.2" width="25.5" height="3.7" rx="1.9" fill="#B08050" opacity="0.125" transform="rotate(50.9 690.9 585.1)"/>
<rect x="622.2" y="483.0" width="14.6" height="2.9" rx="1.4" fill="#8A6238" opacity="0.092" transform="rotate(21.2 629.5 484.5)"/>
<rect x="285.6" y="265.3" width="15.6" height="1.0" rx="0.5" fill="#9B7045" opacity="0.050" transform="rotate(-50.8 293.4 265.8)"/>
<rect x="89.6" y="997.4" width="32.8" height="2.1" rx="1.0" fill="#6B4820" opacity="0.089" transform="rotate(-75.3 106.1 998.5)"/>
<rect x="705.5" y="544.5" width="36.6" height="3.6" rx="1.8" fill="#9B7045" opacity="0.068" transform="rotate(-75.4 723.8 546.3)"/>
<rect x="478.4" y="691.2" width="7.4" height="3.2" rx="1.6" fill="#8A6238" opacity="0.109" transform="rotate(18.1 482.1 692.8)"/>
<rect x="915.4" y="876.8" width="24.9" height="3.1" rx="1.5" fill="#8A6238" opacity="0.115" transform="rotate(-31.1 927.9 878.3)"/>
<rect x="185.2" y="36.8" width="7.5" height="1.3" rx="0.7" fill="#5A3D18" opacity="0.069" transform="rotate(71.7 189.0 37.5)"/>
<rect x="494.4" y="707.5" width="12.0" height="2.6" rx="1.3" fill="#8A6238" opacity="0.042" transform="rotate(2.1 500.4 708.8)"/>
<rect x="688.2" y="435.0" width="40.4" height="3.2" rx="1.6" fill="#6B4820" opacity="0.122" transform="rotate(0.4 708.4 436.5)"/>
<rect x="587.2" y="889.6" width="26.6" height="3.1" rx="1.5" fill="#8A6238" opacity="0.082" transform="rotate(69.2 600.6 891.1)"/>
<rect x="567.3" y="562.9" width="34.8" height="2.9" rx="1.5" fill="#B08050" opacity="0.109" transform="rotate(65.6 584.7 564.3)"/>
<rect x="872.7" y="803.2" width="7.0" height="1.6" rx="0.8" fill="#6B4820" opacity="0.056" transform="rotate(66.5 876.2 804.0)"/>
<rect x="346.9" y="143.2" width="33.0" height="2.6" rx="1.3" fill="#4E3210" opacity="0.095" transform="rotate(-35.6 363.4 144.5)"/>
<rect x="482.0" y="323.1" width="22.9" height="1.1" rx="0.5" fill="#5A3D18" opacity="0.087" transform="rotate(17.9 493.4 323.6)"/>
<rect x="257.8" y="948.1" width="11.8" height="2.2" rx="1.1" fill="#7A5530" opacity="0.083" transform="rotate(-62.2 263.7 949.2)"/>
<rect x="390.3" y="601.3" width="37.1" height="3.7" rx="1.9" fill="#9B7045" opacity="0.057" transform="rotate(71.8 408.9 603.2)"/>
<rect x="871.9" y="76.0" width="37.6" height="1.0" rx="0.5" fill="#5A3D18" opacity="0.045" transform="rotate(-77.5 890.7 76.5)"/>
<rect x="163.8" y="300.0" width="8.6" height="3.5" rx="1.7" fill="#6B4820" opacity="0.047" transform="rotate(-65.0 168.1 301.7)"/>
<rect x="885.5" y="748.7" width="18.6" height="4.2" rx="2.1" fill="#9B7045" opacity="0.084" transform="rotate(60.4 894.8 750.8)"/>
<rect x="562.7" y="139.4" width="18.9" height="1.6" rx="0.8" fill="#B08050" opacity="0.117" transform="rotate(5.2 572.1 140.2)"/>
<rect x="149.6" y="301.7" width="25.8" height="2.6" rx="1.3" fill="#6B4820" opacity="0.118" transform="rotate(35.2 162.5 303.1)"/>
<rect x="414.4" y="367.9" width="19.3" height="2.6" rx="1.3" fill="#7A5530" opacity="0.044" transform="rotate(-13.8 424.1 369.2)"/>
<rect x="801.7" y="16.3" width="39.7" height="3.0" rx="1.5" fill="#B08050" opacity="0.059" transform="rotate(-71.9 821.6 17.7)"/>
<rect x="530.7" y="99.8" width="29.3" height="2.9" rx="1.5" fill="#B08050" opacity="0.065" transform="rotate(-3.9 545.4 101.3)"/>
<rect x="423.7" y="619.8" width="8.7" height="2.8" rx="1.4" fill="#3E2808" opacity="0.120" transform="rotate(-56.2 428.0 621.2)"/>
<rect x="499.9" y="761.3" width="37.0" height="3.6" rx="1.8" fill="#B08050" opacity="0.113" transform="rotate(35.4 518.4 763.1)"/>
<rect x="625.1" y="243.0" width="36.2" height="4.1" rx="2.1" fill="#5A3D18" opacity="0.077" transform="rotate(29.0 643.2 245.0)"/>
<rect x="450.8" y="465.2" width="18.9" height="1.4" rx="0.7" fill="#4E3210" opacity="0.094" transform="rotate(26.8 460.3 465.9)"/>
<rect x="20.3" y="796.0" width="23.5" height="1.8" rx="0.9" fill="#9B7045" opacity="0.130" transform="rotate(-67.8 32.1 796.9)"/>
<rect x="606.6" y="692.8" width="11.5" height="1.1" rx="0.6" fill="#5A3D18" opacity="0.072" transform="rotate(-6.7 612.3 693.4)"/>
<rect x="679.2" y="779.5" width="19.4" height="1.8" rx="0.9" fill="#7A5530" opacity="0.111" transform="rotate(13.2 688.9 780.4)"/>
<rect x="412.9" y="953.4" width="23.0" height="4.0" rx="2.0" fill="#7A5530" opacity="0.096" transform="rotate(-76.9 424.4 955.4)"/>
<rect x="702.4" y="710.8" width="21.4" height="3.7" rx="1.9" fill="#6B4820" opacity="0.080" transform="rotate(23.3 713.1 712.6)"/>
<rect x="982.1" y="401.3" width="42.9" height="1.1" rx="0.6" fill="#3E2808" opacity="0.050" transform="rotate(40.5 1003.6 401.9)"/>
<rect x="739.2" y="181.8" width="13.0" height="2.7" rx="1.3" fill="#6B4820" opacity="0.083" transform="rotate(4.9 745.7 183.1)"/>
<rect x="376.0" y="850.9" width="25.4" height="3.3" rx="1.6" fill="#5A3D18" opacity="0.115" transform="rotate(24.1 388.7 852.6)"/>
<rect x="236.6" y="276.8" width="42.0" height="3.4" rx="1.7" fill="#9B7045" opacity="0.051" transform="rotate(39.5 257.7 278.6)"/>
<rect x="837.4" y="605.2" width="14.3" height="4.0" rx="2.0" fill="#6B4820" opacity="0.049" transform="rotate(-58.8 844.6 607.2)"/>
<rect x="471.8" y="935.2" width="29.1" height="2.0" rx="1.0" fill="#8A6238" opacity="0.060" transform="rotate(-52.3 486.3 936.2)"/>
<rect x="720.8" y="209.9" width="43.5" height="3.9" rx="2.0" fill="#3E2808" opacity="0.082" transform="rotate(-75.1 742.5 211.9)"/>
<rect x="281.3" y="768.6" width="24.8" height="8.3" rx="3" fill="#6B4820" opacity="0.041"/>
<rect x="438.2" y="720.9" width="57.4" height="3.2" rx="3" fill="#6B4820" opacity="0.062"/>
<rect x="925.9" y="535.5" width="101.6" height="14.0" rx="3" fill="#6B4820" opacity="0.039"/>
<rect x="176.9" y="233.2" width="56.4" height="7.5" rx="3" fill="#6B4820" opacity="0.078"/>
<rect x="995.4" y="496.6" width="78.0" height="5.5" rx="3" fill="#6B4820" opacity="0.080"/>
<rect x="573.6" y="204.1" width="59.2" height="10.2" rx="3" fill="#6B4820" opacity="0.089"/>
<rect x="658.4" y="922.5" width="20.7" height="3.2" rx="3" fill="#6B4820" opacity="0.093"/>
<rect x="495.3" y="374.5" width="74.2" height="9.0" rx="3" fill="#6B4820" opacity="0.053"/>
<rect x="458.1" y="185.7" width="87.6" height="8.0" rx="3" fill="#6B4820" opacity="0.044"/>
<rect x="977.1" y="862.9" width="66.6" height="11.3" rx="3" fill="#6B4820" opacity="0.054"/>
<rect x="822.2" y="111.8" width="20.2" height="10.1" rx="3" fill="#6B4820" opacity="0.093"/>
<rect x="605.6" y="930.3" width="66.2" height="14.9" rx="3" fill="#6B4820" opacity="0.098"/>
<rect x="857.6" y="988.5" width="94.0" height="10.3" rx="3" fill="#6B4820" opacity="0.061"/>
<rect x="599.1" y="296.1" width="108.0" height="10.7" rx="3" fill="#6B4820" opacity="0.092"/>
<rect x="179.1" y="310.0" width="30.3" height="12.9" rx="3" fill="#6B4820" opacity="0.095"/>
<rect x="617.0" y="548.1" width="53.3" height="7.8" rx="3" fill="#6B4820" opacity="0.073"/>
<rect x="36.8" y="680.5" width="81.5" height="8.2" rx="3" fill="#6B4820" opacity="0.078"/>
<rect x="890.9" y="419.4" width="20.4" height="3.0" rx="3" fill="#6B4820" opacity="0.085"/>
<rect x="219.8" y="715.1" width="86.0" height="12.2" rx="3" fill="#6B4820" opacity="0.043"/>
<rect x="654.7" y="468.7" width="70.8" height="8.8" rx="3" fill="#6B4820" opacity="0.070"/>
<rect x="780.8" y="187.3" width="64.4" height="6.9" rx="3" fill="#6B4820" opacity="0.100"/>
<rect x="788.6" y="210.1" width="44.4" height="13.4" rx="3" fill="#6B4820" opacity="0.041"/>
<rect x="634.7" y="289.0" width="60.4" height="10.6" rx="3" fill="#6B4820" opacity="0.059"/>
<rect x="32.6" y="265.0" width="22.4" height="5.3" rx="3" fill="#6B4820" opacity="0.084"/>
<rect x="553.2" y="172.8" width="22.0" height="12.7" rx="3" fill="#6B4820" opacity="0.095"/>
<rect x="270.3" y="61.0" width="58.3" height="3.9" rx="3" fill="#6B4820" opacity="0.092"/>
<rect x="519.8" y="869.5" width="101.7" height="8.8" rx="3" fill="#6B4820" opacity="0.045"/>
<rect x="559.4" y="718.9" width="84.0" height="10.4" rx="3" fill="#6B4820" opacity="0.035"/>
<rect x="33.5" y="887.9" width="94.6" height="3.7" rx="3" fill="#6B4820" opacity="0.049"/>
<rect x="342.1" y="158.9" width="40.4" height="7.1" rx="3" fill="#6B4820" opacity="0.088"/>
<rect x="281.2" y="400.0" width="83.3" height="12.2" rx="3" fill="#6B4820" opacity="0.088"/>
<rect x="936.2" y="986.3" width="26.8" height="6.4" rx="3" fill="#6B4820" opacity="0.037"/>
<rect x="455.1" y="305.0" width="35.0" height="7.4" rx="3" fill="#6B4820" opacity="0.075"/>
<rect x="877.3" y="137.0" width="51.3" height="9.0" rx="3" fill="#6B4820" opacity="0.077"/>
<rect x="475.3" y="100.2" width="88.1" height="11.0" rx="3" fill="#6B4820" opacity="0.092"/>
<rect x="185.0" y="1011.4" width="83.1" height="13.1" rx="3" fill="#6B4820" opacity="0.051"/>
<rect x="961.0" y="152.5" width="82.4" height="10.3" rx="3" fill="#6B4820" opacity="0.052"/>
<rect x="36.2" y="335.1" width="28.5" height="6.0" rx="3" fill="#6B4820" opacity="0.057"/>
<rect x="227.2" y="505.4" width="98.8" height="7.8" rx="3" fill="#6B4820" opacity="0.032"/>
<rect x="648.5" y="949.9" width="59.6" height="3.5" rx="3" fill="#6B4820" opacity="0.051"/>
<rect x="279.7" y="27.5" width="48.2" height="13.9" rx="3" fill="#6B4820" opacity="0.076"/>
<rect x="275.3" y="141.9" width="72.2" height="5.6" rx="3" fill="#6B4820" opacity="0.064"/>
<rect x="169.3" y="471.2" width="61.7" height="13.8" rx="3" fill="#6B4820" opacity="0.065"/>
<rect x="340.4" y="881.8" width="86.0" height="8.5" rx="3" fill="#6B4820" opacity="0.091"/>
<rect x="115.0" y="976.4" width="86.7" height="4.8" rx="3" fill="#6B4820" opacity="0.086"/>
<rect x="609.5" y="409.5" width="28.3" height="4.3" rx="3" fill="#6B4820" opacity="0.062"/>
<rect x="764.9" y="183.2" width="71.5" height="8.3" rx="3" fill="#6B4820" opacity="0.100"/>
<rect x="515.2" y="252.2" width="108.5" height="8.8" rx="3" fill="#6B4820" opacity="0.093"/>
<rect x="727.8" y="257.3" width="73.0" height="13.9" rx="3" fill="#6B4820" opacity="0.079"/>
<rect x="102.9" y="805.4" width="83.2" height="8.2" rx="3" fill="#6B4820" opacity="0.097"/>
<rect x="449.2" y="251.2" width="87.2" height="4.5" rx="3" fill="#6B4820" opacity="0.046"/>
<rect x="316.5" y="833.7" width="32.1" height="7.7" rx="3" fill="#6B4820" opacity="0.041"/>
<rect x="951.8" y="210.6" width="28.1" height="14.6" rx="3" fill="#6B4820" opacity="0.070"/>
<rect x="957.1" y="629.0" width="51.0" height="14.0" rx="3" fill="#6B4820" opacity="0.078"/>
<rect x="323.2" y="489.3" width="54.3" height="8.0" rx="3" fill="#6B4820" opacity="0.054"/>
<line x1="0" y1="40.5" x2="1024" y2="40.5" stroke="#7A5A2A" stroke-width="1" opacity="0.55"/>
<line x1="0" y1="76.0" x2="1024" y2="76.0" stroke="#7A5A2A" stroke-width="1" opacity="0.28"/>
<line x1="0" y1="112.0" x2="1024" y2="112.0" stroke="#7A5A2A" stroke-width="1" opacity="0.28"/>
<line x1="0" y1="148.0" x2="1024" y2="148.0" stroke="#7A5A2A" stroke-width="1" opacity="0.28"/>
<line x1="0" y1="184.0" x2="1024" y2="184.0" stroke="#7A5A2A" stroke-width="1" opacity="0.28"/>
<line x1="0" y1="220.0" x2="1024" y2="220.0" stroke="#7A5A2A" stroke-width="1" opacity="0.28"/>
<line x1="0" y1="256.0" x2="1024" y2="256.0" stroke="#7A5A2A" stroke-width="1" opacity="0.55"/>
<line x1="0" y1="292.0" x2="1024" y2="292.0" stroke="#7A5A2A" stroke-width="1" opacity="0.28"/>
<line x1="0" y1="328.0" x2="1024" y2="328.0" stroke="#7A5A2A" stroke-width="1" opacity="0.28"/>
<line x1="0" y1="364.9" x2="1024" y2="364.9" stroke="#7A5A2A" stroke-width="1" opacity="0.28"/>
<line x1="0" y1="400.0" x2="1024" y2="400.0" stroke="#7A5A2A" stroke-width="1" opacity="0.28"/>
<line x1="0" y1="436.0" x2="1024" y2="436.0" stroke="#7A5A2A" stroke-width="1" opacity="0.28"/>
<line x1="0" y1="472.0" x2="1024" y2="472.0" stroke="#7A5A2A" stroke-width="1" opacity="0.55"/>
<line x1="0" y1="508.0" x2="1024" y2="508.0" stroke="#7A5A2A" stroke-width="1" opacity="0.28"/>
<line x1="0" y1="544.0" x2="1024" y2="544.0" stroke="#7A5A2A" stroke-width="1" opacity="0.28"/>
<line x1="0" y1="580.0" x2="1024" y2="580.0" stroke="#7A5A2A" stroke-width="1" opacity="0.28"/>
<line x1="0" y1="616.0" x2="1024" y2="616.0" stroke="#7A5A2A" stroke-width="1" opacity="0.28"/>
<line x1="0" y1="652.0" x2="1024" y2="652.0" stroke="#7A5A2A" stroke-width="1" opacity="0.28"/>
<line x1="0" y1="688.2" x2="1024" y2="688.2" stroke="#7A5A2A" stroke-width="1" opacity="0.55"/>
<line x1="0" y1="724.0" x2="1024" y2="724.0" stroke="#7A5A2A" stroke-width="1" opacity="0.28"/>
<line x1="0" y1="760.0" x2="1024" y2="760.0" stroke="#7A5A2A" stroke-width="1" opacity="0.28"/>
<line x1="0" y1="796.0" x2="1024" y2="796.0" stroke="#7A5A2A" stroke-width="1" opacity="0.28"/>
<line x1="0" y1="832.0" x2="1024" y2="832.0" stroke="#7A5A2A" stroke-width="1" opacity="0.28"/>
<line x1="0" y1="868.0" x2="1024" y2="868.0" stroke="#7A5A2A" stroke-width="1" opacity="0.28"/>
<line x1="0" y1="904.0" x2="1024" y2="904.0" stroke="#7A5A2A" stroke-width="1" opacity="0.55"/>
<line x1="0" y1="940.0" x2="1024" y2="940.0" stroke="#7A5A2A" stroke-width="1" opacity="0.28"/>
<line x1="0" y1="976.0" x2="1024" y2="976.0" stroke="#7A5A2A" stroke-width="1" opacity="0.28"/>
<line x1="0" y1="1012.9" x2="1024" y2="1012.9" stroke="#7A5A2A" stroke-width="1" opacity="0.28"/>
<line x1="72" y1="0" x2="72" y2="1024" stroke="#C04040" stroke-width="1.5" opacity="0.30"/>
<rect width="1024" height="100" fill="url(#vTop)"/>
<rect y="904" width="1024" height="120" fill="url(#vBot)"/>
<rect width="50" height="1024" fill="url(#vLeft)"/>
<rect x="974" width="50" height="1024" fill="url(#vRight)"/>
<g transform="rotate(-3 179 451)" filter="url(#ds0)"><rect x="74" y="346" width="210" height="210" rx="24" ry="24" fill="#FFD4D4" stroke="#E07070" stroke-width="5"/><rect x="82" y="354" width="194" height="64" rx="18" ry="18" fill="white" opacity="0.22"/><text x="179" y="451" font-family="'Helvetica Neue', Arial, sans-serif" font-size="138" font-weight="900" fill="#882020" text-anchor="middle" dominant-baseline="central">N</text></g>
<g transform="rotate(2 401 451)" filter="url(#ds1)"><rect x="296" y="346" width="210" height="210" rx="24" ry="24" fill="#FEF3A3" stroke="#E8D840" stroke-width="5"/><rect x="304" y="354" width="194" height="64" rx="18" ry="18" fill="white" opacity="0.22"/><text x="401" y="451" font-family="'Helvetica Neue', Arial, sans-serif" font-size="138" font-weight="900" fill="#8B7A10" text-anchor="middle" dominant-baseline="central">P</text></g>
<g transform="rotate(-2 623 451)" filter="url(#ds2)"><rect x="518" y="346" width="210" height="210" rx="24" ry="24" fill="#C8F5D0" stroke="#50B870" stroke-width="5"/><rect x="526" y="354" width="194" height="64" rx="18" ry="18" fill="white" opacity="0.22"/><text x="623" y="451" font-family="'Helvetica Neue', Arial, sans-serif" font-size="138" font-weight="900" fill="#2A6640" text-anchor="middle" dominant-baseline="central">A</text></g>
<g transform="rotate(3 845 451)" filter="url(#ds3)"><rect x="740" y="346" width="210" height="210" rx="24" ry="24" fill="#D0EAFF" stroke="#60A8E0" stroke-width="5"/><rect x="748" y="354" width="194" height="64" rx="18" ry="18" fill="white" opacity="0.22"/><text x="845" y="451" font-family="'Helvetica Neue', Arial, sans-serif" font-size="138" font-weight="900" fill="#205880" text-anchor="middle" dominant-baseline="central">T</text></g>
<text x="179" y="612" font-family="'Helvetica Neue', Arial, sans-serif" font-size="52" font-weight="900" fill="#882020" opacity="0.88" text-anchor="middle" dominant-baseline="central">Name</text>
<text x="401" y="612" font-family="'Helvetica Neue', Arial, sans-serif" font-size="52" font-weight="900" fill="#8B7A10" opacity="0.88" text-anchor="middle" dominant-baseline="central">Place</text>
<text x="623" y="612" font-family="'Helvetica Neue', Arial, sans-serif" font-size="52" font-weight="900" fill="#2A6640" opacity="0.88" text-anchor="middle" dominant-baseline="central">Animal</text>
<text x="845" y="612" font-family="'Helvetica Neue', Arial, sans-serif" font-size="52" font-weight="900" fill="#205880" opacity="0.88" text-anchor="middle" dominant-baseline="central">Thing</text>
</svg>